<?xml version="1.0" encoding="UTF-8" standalone="no"?>
<svg
   xmlns:dc="http://purl.org/dc/elements/1.1/"
   xmlns:cc="http://creativecommons.org/ns#"
   xmlns:rdf="http://www.w3.org/1999/02/22-rdf-syntax-ns#"
   xmlns:svg="http://www.w3.org/2000/svg"
   xmlns="http://www.w3.org/2000/svg"
   xmlns:sodipodi="http://sodipodi.sourceforge.net/DTD/sodipodi-0.dtd"
   xmlns:inkscape="http://www.inkscape.org/namespaces/inkscape"
   inkscape:version="1.0 (4035a4f, 2020-05-01)"
   sodipodi:docname="ivpfeedback.svg"
   xml:space="preserve"
   style="enable-background:new 0 0 934.9 530.2;"
   viewBox="0 0 934.9 530.2"
   y="0px"
   x="0px"
   id="Layer_1"
   version="1.1"><metadata
   id="metadata49"><rdf:RDF><cc:Work
       rdf:about=""><dc:format>image/svg+xml</dc:format><dc:type
         rdf:resource="http://purl.org/dc/dcmitype/StillImage" /></cc:Work></rdf:RDF></metadata><defs
   id="defs47" /><sodipodi:namedview
   inkscape:current-layer="Layer_1"
   inkscape:window-maximized="0"
   inkscape:window-y="23"
   inkscape:window-x="0"
   inkscape:cy="265.1"
   inkscape:cx="467.45"
   inkscape:zoom="1.1733875"
   showgrid="false"
   id="namedview45"
   inkscape:window-height="881"
   inkscape:window-width="1822"
   inkscape:pageshadow="2"
   inkscape:pageopacity="0"
   guidetolerance="10"
   gridtolerance="10"
   objecttolerance="10"
   borderopacity="1"
   bordercolor="#666666"
   pagecolor="#ffffff" />
<style
   id="style10"
   type="text/css">
	.st0{fill:#FFFFFF;}
	.st1{fill:#04C9DB;}
</style>
<g
   transform="translate(-266.74904,46.872835)"
   id="g42">
	<path
   id="path12"
   d="m 0,223.7 v -79.4 h 27.7 v 77.2 c 0,15.1 8.4,22.6 21.6,22.6 13.2,0 21.6,-7.5 21.6,-22.6 v -77.2 h 27.7 v 79.4 c 0,31.2 -21.9,47.7 -49.3,47.7 C 21.9,271.4 0,254.9 0,223.7 Z"
   class="st0" />
	<path
   id="path14"
   d="m 185.2,181.7 c -0.9,-5.8 -5.6,-15.6 -20.7,-15.6 -10.3,0 -17,6.5 -17,13.3 0,6 3.7,10.3 12.3,11.9 l 16.7,3.2 c 23.7,4.4 36,19.6 36,37.4 0,19.5 -16.3,39.3 -45.9,39.3 -34.4,0 -49.1,-22.3 -50.9,-39.8 l 25.4,-6.1 c 1.1,11.4 8.8,21.4 25.8,21.4 10.9,0 17.5,-5.3 17.5,-13 0,-6.3 -5.1,-10.9 -13.3,-12.5 l -17,-3.2 c -21,-4 -33.8,-18.1 -33.8,-36.5 0,-23.5 20.7,-40 44.5,-40 31,0 42.8,18.6 45.4,33.1 z"
   class="st0" />
	<path
   id="path16"
   d="m 302.3,243.3 h -48.1 l -8.9,25.3 H 216.2 L 263,144.3 h 32.1 l 46.3,124.3 H 311.2 Z M 263.4,218 h 30.2 l -14.9,-43 z"
   class="st0" />
	<path
   id="path18"
   d="m 342.7,206.6 c 0,-38.8 29.5,-65.1 64.2,-65.1 37.4,0 53.8,24 57.9,41.9 l -26.1,8.2 c -1.9,-8.6 -9.8,-23.1 -31.7,-23.1 -16.7,0 -35.4,11.9 -35.4,38.1 0,23.3 17.2,36.8 35.8,36.8 21.6,0 30.2,-14.4 32.6,-23.3 l 26.5,7.5 c -4,17.2 -20.5,43.5 -59.1,43.5 -36,0.1 -64.7,-25.7 -64.7,-64.5 z"
   class="st0" />
	<g
   id="g24">
		<path
   id="path20"
   d="M 836.7,168.2 H 820.6 V 200 h 16.1 c 10.5,0 17.7,-6.1 17.7,-15.8 0,-10 -7.2,-16 -17.7,-16 z"
   class="st1" />
		<path
   id="path22"
   d="M 735.2,0 C 624.8,0 535.4,89.4 535.4,199.7 535.4,310 624.8,399.4 735.1,399.4 845.4,399.4 934.8,310 934.8,199.7 934.8,89.4 845.5,0 735.2,0 Z M 642.7,268.5 H 614.6 V 144.2 h 28.1 z m 89.3,0 H 703.4 L 657.8,144.2 h 30.5 l 30,87.5 29.6,-87.5 h 29.5 z m 107.5,-44.7 h -19.1 v 44.7 H 792.7 V 144.2 h 46.8 c 25.3,0 42.6,16.7 42.6,39.8 0,23.5 -17.4,39.8 -42.6,39.8 z"
   class="st1" />
	</g>
	<polygon
   id="polygon26"
   points="21.2,371.4 13.5,371.4 2.7,371.4 2.7,528.5 21.2,528.5 21.2,460.6 77.2,460.6 77.2,443.3 21.2,443.3 21.2,388.8 85.9,388.8 85.9,371.4 "
   class="st0" />
	<polygon
   id="polygon28"
   points="126,371.4 118.2,371.4 107.5,371.4 107.5,528.5 118.2,528.5 126,528.5 191.7,528.5 191.7,511.2 126,511.2 126,459.2 183,459.2 183,441.9 126,441.9 126,388.8 191.7,388.8 191.7,371.4 "
   class="st0" />
	<polygon
   id="polygon30"
   points="233.9,371.4 226.2,371.4 215.5,371.4 215.5,528.5 226.2,528.5 233.9,528.5 299.6,528.5 299.6,511.2 233.9,511.2 233.9,459.2 291,459.2 291,441.9 233.9,441.9 233.9,388.8 299.6,388.8 299.6,371.4 "
   class="st0" />
	<path
   id="path32"
   d="m 410,391 c -3.5,-6.5 -8.6,-11.4 -15.3,-14.6 -6.7,-3.3 -14.9,-4.9 -24.6,-4.9 h -28.2 -5.7 -12.8 v 157.1 h 12.8 5.7 28.1 c 9.7,0 17.9,-1.7 24.6,-5 6.8,-3.3 11.9,-8.2 15.3,-14.7 3.5,-6.5 5.2,-14.4 5.2,-23.7 v -70.5 c 0.1,-9.3 -1.7,-17.2 -5.1,-23.7 z m -13.4,95 c 0,8.2 -2.2,14.5 -6.6,18.7 -4.4,4.3 -10.8,6.4 -19.2,6.4 H 341.9 V 388.8 h 28.9 c 8.4,0 14.8,2.1 19.2,6.4 4.4,4.3 6.6,10.5 6.6,18.7 z"
   class="st0" />
	<path
   id="path34"
   d="m 530.5,464.8 c -2,-4.6 -4.8,-8.5 -8.6,-11.6 -3.7,-3.1 -8.2,-5 -13.4,-5.8 5,-1 9.2,-3 12.6,-5.9 3.4,-2.9 6,-6.5 7.7,-10.8 1.7,-4.3 2.6,-9 2.6,-14 v -9.6 c 0,-7.4 -1.5,-13.8 -4.4,-19.1 -3,-5.3 -7.3,-9.4 -13.1,-12.3 -5.8,-2.9 -12.9,-4.3 -21.3,-4.3 h -32.6 -5.3 -13 v 157.1 h 13 5.3 35 c 7.9,0 14.8,-1.5 20.6,-4.4 5.8,-2.9 10.2,-7.1 13.3,-12.6 3.1,-5.5 4.6,-11.9 4.6,-19.3 v -11.8 c 0,-5.7 -1,-10.9 -3,-15.6 z m -39.6,-76.3 c 7.2,0 12.7,1.6 16.4,4.9 3.7,3.3 5.6,8.2 5.6,14.6 v 9.6 c 0,6.9 -1.7,12.2 -5.2,15.7 -3.5,3.6 -8.6,5.3 -15.4,5.3 h -32.4 v -50.2 h 31 z m 24.1,103 c 0,6.3 -2,11.3 -6.1,14.8 -4,3.5 -10.3,5.2 -18.8,5.2 h -30.3 v -55.8 h 32.4 c 5,0 9.1,0.9 12.5,2.8 3.4,1.8 5.9,4.5 7.6,8.1 1.7,3.5 2.5,7.7 2.5,12.6 v 12.3 z"
   class="st0" />
	<path
   id="path36"
   d="m 637.8,528.5 h 20.1 L 610.8,371.4 H 592 L 544.9,528.5 H 565 l 9.9,-36.3 h 53 z m -58.2,-53.4 21.8,-79.5 21.8,79.5 z"
   class="st0" />
	<path
   id="path38"
   d="m 687.9,524.2 c -6.8,-4 -12.1,-9.7 -15.8,-17.1 -3.7,-7.4 -5.6,-16.2 -5.6,-26.4 v -61.5 c 0,-10.2 1.9,-18.9 5.6,-26.4 3.7,-7.4 9,-13.1 15.8,-17.1 6.8,-4 14.9,-6 24.2,-6 8.9,0 16.6,1.8 23.1,5.4 6.5,3.6 11.7,8.8 15.5,15.7 3.8,6.9 6.1,15.2 6.7,24.9 h -18.5 c -0.6,-6 -2.2,-11.1 -4.5,-15.3 -2.4,-4.2 -5.5,-7.4 -9.3,-9.7 -3.8,-2.2 -8.1,-3.4 -13,-3.4 -5.5,0 -10.3,1.3 -14.4,3.8 -4,2.6 -7.2,6.2 -9.4,11 -2.2,4.8 -3.3,10.4 -3.3,16.9 v 61.5 c 0,6.5 1.1,12.1 3.3,16.9 2.2,4.8 5.4,8.4 9.4,11 4,2.5 8.8,3.8 14.4,3.8 4.9,0 9.2,-1.1 13,-3.3 3.8,-2.2 6.9,-5.4 9.2,-9.6 2.4,-4.2 3.9,-9.3 4.5,-15.4 h 18.5 c -0.6,9.7 -2.9,18 -6.8,24.9 -3.9,6.9 -9,12.1 -15.6,15.7 -6.5,3.6 -14.2,5.4 -23,5.4 -9.1,0.3 -17.1,-1.7 -24,-5.7 z"
   class="st0" />
	<polygon
   id="polygon40"
   points="835.9,432.5 877.4,371.4 855.6,371.4 799.1,457.8 799.1,371.4 780.6,371.4 780.6,528.5 799.1,528.5 799.1,486.7 824,450.1 861.4,528.5 883.2,528.5 "
   class="st0" />
</g>
</svg>
