<?xml version="1.0" encoding="utf-8"?>
<!-- Generator: Adobe Illustrator 24.2.3, SVG Export Plug-In . SVG Version: 6.00 Build 0)  -->
<svg version="1.1" id="Layer_1" xmlns="http://www.w3.org/2000/svg" xmlns:xlink="http://www.w3.org/1999/xlink" x="0px" y="0px"
	 viewBox="0 0 934.9 530.2" style="enable-background:new 0 0 934.9 530.2;" xml:space="preserve">
<style type="text/css">
	.st0{fill:#FFFFFF;}
	.st1{fill:#04C9DB;}
</style>
<g>
	<path class="st0" d="M0,223.7v-79.4h27.7v77.2c0,15.1,8.4,22.6,21.6,22.6s21.6-7.5,21.6-22.6v-77.2h27.7v79.4
		c0,31.2-21.9,47.7-49.3,47.7S0,254.9,0,223.7z"/>
	<path class="st0" d="M185.2,181.7c-0.9-5.8-5.6-15.6-20.7-15.6c-10.3,0-17,6.5-17,13.3c0,6,3.7,10.3,12.3,11.9l16.7,3.2
		c23.7,4.4,36,19.6,36,37.4c0,19.5-16.3,39.3-45.9,39.3c-34.4,0-49.1-22.3-50.9-39.8l25.4-6.1c1.1,11.4,8.8,21.4,25.8,21.4
		c10.9,0,17.5-5.3,17.5-13c0-6.3-5.1-10.9-13.3-12.5l-17-3.2c-21-4-33.8-18.1-33.8-36.5c0-23.5,20.7-40,44.5-40
		c31,0,42.8,18.6,45.4,33.1L185.2,181.7z"/>
	<path class="st0" d="M302.3,243.3h-48.1l-8.9,25.3h-29.1l46.8-124.3h32.1l46.3,124.3h-30.2L302.3,243.3z M263.4,218h30.2l-14.9-43
		L263.4,218z"/>
	<path class="st0" d="M342.7,206.6c0-38.8,29.5-65.1,64.2-65.1c37.4,0,53.8,24,57.9,41.9l-26.1,8.2c-1.9-8.6-9.8-23.1-31.7-23.1
		c-16.7,0-35.4,11.9-35.4,38.1c0,23.3,17.2,36.8,35.8,36.8c21.6,0,30.2-14.4,32.6-23.3l26.5,7.5c-4,17.2-20.5,43.5-59.1,43.5
		C371.4,271.2,342.7,245.4,342.7,206.6z"/>
	<g>
		<path class="st1" d="M836.7,168.2h-16.1V200h16.1c10.5,0,17.7-6.1,17.7-15.8C854.4,174.2,847.2,168.2,836.7,168.2z"/>
		<path class="st1" d="M735.2,0C624.8,0,535.4,89.4,535.4,199.7s89.4,199.7,199.7,199.7s199.7-89.4,199.7-199.7S845.5,0,735.2,0z
			 M642.7,268.5h-28.1V144.2h28.1V268.5z M732,268.5h-28.6l-45.6-124.3h30.5l30,87.5l29.6-87.5h29.5L732,268.5z M839.5,223.8h-19.1
			v44.7h-27.7V144.2h46.8c25.3,0,42.6,16.7,42.6,39.8C882.1,207.5,864.7,223.8,839.5,223.8z"/>
	</g>
	<polygon class="st0" points="85.9,388.8 85.9,371.4 21.2,371.4 13.5,371.4 2.7,371.4 2.7,528.5 21.2,528.5 21.2,460.6 77.2,460.6 
		77.2,443.3 21.2,443.3 21.2,388.8 	"/>
	<polygon class="st0" points="191.7,388.8 191.7,371.4 126,371.4 118.2,371.4 107.5,371.4 107.5,528.5 118.2,528.5 126,528.5 
		191.7,528.5 191.7,511.2 126,511.2 126,459.2 183,459.2 183,441.9 126,441.9 126,388.8 	"/>
	<polygon class="st0" points="299.6,388.8 299.6,371.4 233.9,371.4 226.2,371.4 215.5,371.4 215.5,528.5 226.2,528.5 233.9,528.5 
		299.6,528.5 299.6,511.2 233.9,511.2 233.9,459.2 291,459.2 291,441.9 233.9,441.9 233.9,388.8 	"/>
	<path class="st0" d="M410,391c-3.5-6.5-8.6-11.4-15.3-14.6c-6.7-3.3-14.9-4.9-24.6-4.9h-28.2h-5.7h-12.8v157.1h12.8h5.7H370
		c9.7,0,17.9-1.7,24.6-5c6.8-3.3,11.9-8.2,15.3-14.7c3.5-6.5,5.2-14.4,5.2-23.7v-70.5C415.2,405.4,413.4,397.5,410,391z M396.6,486
		c0,8.2-2.2,14.5-6.6,18.7c-4.4,4.3-10.8,6.4-19.2,6.4h-28.9V388.8h28.9c8.4,0,14.8,2.1,19.2,6.4c4.4,4.3,6.6,10.5,6.6,18.7V486z"/>
	<path class="st0" d="M530.5,464.8c-2-4.6-4.8-8.5-8.6-11.6c-3.7-3.1-8.2-5-13.4-5.8c5-1,9.2-3,12.6-5.9c3.4-2.9,6-6.5,7.7-10.8
		c1.7-4.3,2.6-9,2.6-14v-9.6c0-7.4-1.5-13.8-4.4-19.1c-3-5.3-7.3-9.4-13.1-12.3c-5.8-2.9-12.9-4.3-21.3-4.3h-32.6h-5.3h-13v157.1h13
		h5.3h35c7.9,0,14.8-1.5,20.6-4.4c5.8-2.9,10.2-7.1,13.3-12.6c3.1-5.5,4.6-11.9,4.6-19.3v-11.8C533.5,474.7,532.5,469.5,530.5,464.8
		z M490.9,388.5c7.2,0,12.7,1.6,16.4,4.9c3.7,3.3,5.6,8.2,5.6,14.6v9.6c0,6.9-1.7,12.2-5.2,15.7c-3.5,3.6-8.6,5.3-15.4,5.3h-32.4
		v-50.2H490.9z M515,491.5c0,6.3-2,11.3-6.1,14.8c-4,3.5-10.3,5.2-18.8,5.2h-30.3v-55.8h32.4c5,0,9.1,0.9,12.5,2.8
		c3.4,1.8,5.9,4.5,7.6,8.1c1.7,3.5,2.5,7.7,2.5,12.6V491.5z"/>
	<path class="st0" d="M637.8,528.5h20.1l-47.1-157.1H592l-47.1,157.1h20.1l9.9-36.3h53L637.8,528.5z M579.6,475.1l21.8-79.5
		l21.8,79.5H579.6z"/>
	<path class="st0" d="M687.9,524.2c-6.8-4-12.1-9.7-15.8-17.1c-3.7-7.4-5.6-16.2-5.6-26.4v-61.5c0-10.2,1.9-18.9,5.6-26.4
		c3.7-7.4,9-13.1,15.8-17.1c6.8-4,14.9-6,24.2-6c8.9,0,16.6,1.8,23.1,5.4c6.5,3.6,11.7,8.8,15.5,15.7c3.8,6.9,6.1,15.2,6.7,24.9
		h-18.5c-0.6-6-2.2-11.1-4.5-15.3c-2.4-4.2-5.5-7.4-9.3-9.7c-3.8-2.2-8.1-3.4-13-3.4c-5.5,0-10.3,1.3-14.4,3.8
		c-4,2.6-7.2,6.2-9.4,11c-2.2,4.8-3.3,10.4-3.3,16.9v61.5c0,6.5,1.1,12.1,3.3,16.9c2.2,4.8,5.4,8.4,9.4,11c4,2.5,8.8,3.8,14.4,3.8
		c4.9,0,9.2-1.1,13-3.3c3.8-2.2,6.9-5.4,9.2-9.6c2.4-4.2,3.9-9.3,4.5-15.4h18.5c-0.6,9.7-2.9,18-6.8,24.9c-3.9,6.9-9,12.1-15.6,15.7
		c-6.5,3.6-14.2,5.4-23,5.4C702.8,530.2,694.8,528.2,687.9,524.2z"/>
	<polygon class="st0" points="861.4,528.5 883.2,528.5 835.9,432.5 877.4,371.4 855.6,371.4 799.1,457.8 799.1,371.4 780.6,371.4 
		780.6,528.5 799.1,528.5 799.1,486.7 824,450.1 	"/>
</g>
</svg>
